<svg width="22" height="22" viewBox="0 0 22 22" fill="none" xmlns="http://www.w3.org/2000/svg">
<path d="M0 2.75C0 2.02065 0.289731 1.32118 0.805456 0.805456C1.32118 0.289731 2.02065 0 2.75 0L19.25 0C19.9793 0 20.6788 0.289731 21.1945 0.805456C21.7103 1.32118 22 2.02065 22 2.75V13.75C22 14.4793 21.7103 15.1788 21.1945 15.6945C20.6788 16.2103 19.9793 16.5 19.25 16.5H6.06925C5.70461 16.5001 5.35493 16.645 5.09713 16.9029L1.17425 20.8258C1.07818 20.9221 0.955695 20.9877 0.8223 21.0144C0.688904 21.0411 0.550594 21.0276 0.424874 20.9756C0.299155 20.9236 0.191678 20.8355 0.116046 20.7225C0.0404148 20.6094 2.88955e-05 20.4764 0 20.3404L0 2.75ZM6.875 8.25C6.875 7.88533 6.73013 7.53559 6.47227 7.27773C6.21441 7.01987 5.86467 6.875 5.5 6.875C5.13533 6.875 4.78559 7.01987 4.52773 7.27773C4.26987 7.53559 4.125 7.88533 4.125 8.25C4.125 8.61467 4.26987 8.96441 4.52773 9.22227C4.78559 9.48013 5.13533 9.625 5.5 9.625C5.86467 9.625 6.21441 9.48013 6.47227 9.22227C6.73013 8.96441 6.875 8.61467 6.875 8.25ZM12.375 8.25C12.375 7.88533 12.2301 7.53559 11.9723 7.27773C11.7144 7.01987 11.3647 6.875 11 6.875C10.6353 6.875 10.2856 7.01987 10.0277 7.27773C9.76987 7.53559 9.625 7.88533 9.625 8.25C9.625 8.61467 9.76987 8.96441 10.0277 9.22227C10.2856 9.48013 10.6353 9.625 11 9.625C11.3647 9.625 11.7144 9.48013 11.9723 9.22227C12.2301 8.96441 12.375 8.61467 12.375 8.25ZM16.5 9.625C16.8647 9.625 17.2144 9.48013 17.4723 9.22227C17.7301 8.96441 17.875 8.61467 17.875 8.25C17.875 7.88533 17.7301 7.53559 17.4723 7.27773C17.2144 7.01987 16.8647 6.875 16.5 6.875C16.1353 6.875 15.7856 7.01987 15.5277 7.27773C15.2699 7.53559 15.125 7.88533 15.125 8.25C15.125 8.61467 15.2699 8.96441 15.5277 9.22227C15.7856 9.48013 16.1353 9.625 16.5 9.625Z" fill="url(#paint0_linear_9222_11622)"/>
<defs>
<linearGradient id="paint0_linear_9222_11622" x1="4.88889" y1="8.96224e-07" x2="26.3071" y2="6.2371" gradientUnits="userSpaceOnUse">
<stop stop-color="#F56666"/>
<stop offset="1" stop-color="#F2AF4A"/>
</linearGradient>
</defs>
</svg>
