<svg xmlns="http://www.w3.org/2000/svg" version="1.1" xmlns:xlink="http://www.w3.org/1999/xlink" xmlns:svgjs="http://svgjs.com/svgjs"  x="0" y="0" viewBox="0 0 512 512" style="enable-background:new 0 0 512 512" xml:space="preserve" class=""><g><path d="m497 512h-482c-8.284 0-15-6.716-15-15v-482c0-8.284 6.716-15 15-15h482c8.284 0 15 6.716 15 15v482c0 8.284-6.716 15-15 15z" fill="#f2f2f2" data-original="#f2f2f2" class=""></path><path d="m497 0h-241v512h241c8.284 0 15-6.716 15-15v-482c0-8.284-6.716-15-15-15z" fill="#dbdbdb" data-original="#dbdbdb" class=""></path><g fill="#00f7ef"><path d="m377.937 151.577c8.956 5.483 19.002 9.137 29.501 12.301v-12.759l-.099-.006-.465-.058c-1.299-.16-4.935-.702-10.624-2.293-13.728-3.837-27.001-7.864-38.485-14.895-.162-.099-.319-.204-.48-.304 5.667 7.039 12.552 13.055 20.652 18.014z" fill="#00f7ef" data-original="#00f7ef"></path><path d="m220.523 384.788c.393.008.787.012 1.177.012 14.443 0 27.849-5.3 37.748-14.923 10.092-9.813 15.717-23.351 15.838-38.122.509-62.476.27-243.478.259-251.152l45.069-.03c-1.266-5.59-2.134-11.497-2.595-17.722l-62.645.042c.011 7.675.249 188.677-.26 251.152-.121 14.771-5.746 28.309-15.838 38.121-9.899 9.623-23.305 14.923-37.748 14.923-.39 0-.784-.004-1.177-.012-8.138-.162-15.842-2.188-22.708-5.656 9.407 13.777 25.108 23.012 42.88 23.367z" fill="#00f7ef" data-original="#00f7ef"></path><path d="m132.902 256.656c22.215-26.272 52.57-41.339 83.282-41.339 0 0 .658-.012 1.777-.007v-15.966c-9.442-1.967-21.948-1.737-21.948-1.737-30.712 0-61.067 15.068-83.282 41.339-22.564 26.686-32.346 60.142-26.836 91.791 5.828 33.48 25.457 62.658 51.484 80.867-15.752-17.16-27.114-39.04-31.312-63.157-5.511-31.649 4.271-65.105 26.835-91.791z" fill="#00f7ef" data-original="#00f7ef"></path></g><path d="m357.286 133.563c-11.099-13.79-17.503-31.519-19.094-53.003l-17.576.012c5.287 23.355 17.575 41.132 36.67 52.991z" fill="#ff004f" data-original="#ff004f" class=""></path><path d="m209.458 262.163c-16.735-2.62-33.953 2.548-45.885 14.57-9.506 9.577-15.294 22.706-15.323 37.172-.04 20.619 11.975 38.718 29.394 47.517-5.828-8.535-9.244-18.81-9.223-29.807.028-14.466 5.817-27.595 15.323-37.172 11.932-12.022 29.15-17.191 45.885-14.57 4.985.78 8.503 1.705 8.503 1.705v-64.524c-7.286-1.518-16.391-1.727-20.172-1.744v48.558c.001 0-3.518-.925-8.502-1.705z" fill="#ff004f" data-original="#ff004f" class=""></path><path d="m427.511 168.823-.465-.058c-1.299-.16-4.934-.702-10.624-2.293-3.022-.845-6.02-1.701-8.984-2.594v48.4c-1.462-.019-36.139-.609-67.437-13.219l-21.296-8.58-.074 121.044c-.137 32.676-10.958 61.312-31.293 82.757-20.414 21.528-48.936 34.281-82.484 36.882-2.376.184-4.798.278-7.199.278h.001-.001-.001.001c-21.513.001-42.403-7.331-60.277-19.836 21.134 23.023 50.174 37.548 80.448 37.546 2.401-.001 4.823-.094 7.199-.278 33.548-2.601 62.07-15.355 82.484-36.882 20.335-21.445 31.156-50.081 31.293-82.757l.074-121.044 21.296 8.581c31.297 12.61 65.975 13.2 67.437 13.219v-61.159z" fill="#ff004f" data-original="#ff004f" class=""></path><path d="m204.854 431.162c33.548-2.601 62.07-15.355 82.484-36.882 20.336-21.445 31.157-50.081 31.293-82.757l.074-121.044 21.296 8.58c31.297 12.61 65.975 13.2 67.437 13.219v-48.4c-10.499-3.164-20.545-6.817-29.501-12.301-8.1-4.959-14.986-10.975-20.651-18.014-19.095-11.859-31.383-29.636-36.671-52.991l-45.069.03c.011 7.674.25 188.676-.259 251.152-.121 14.771-5.746 28.309-15.838 38.122-9.899 9.623-23.305 14.923-37.748 14.923-.39 0-.784-.004-1.177-.012-17.773-.354-33.474-9.59-42.879-23.366-17.419-8.799-29.434-26.898-29.394-47.517.028-14.466 5.817-27.595 15.323-37.172 11.933-12.022 29.151-17.191 45.885-14.57 4.985.78 8.503 1.705 8.503 1.705v-48.557c-1.119-.005-1.777.007-1.777.007-30.712 0-61.067 15.068-83.282 41.339-22.564 26.685-32.346 60.142-26.836 91.791 4.198 24.116 15.56 45.997 31.312 63.157 17.874 12.505 38.764 19.837 60.277 19.836 2.4-.001 4.822-.094 7.198-.278z" fill="#000000" data-original="#000000" class=""></path></g></svg>